<?xml version="1.0" encoding="iso-8859-1"?>
<!-- Uploaded to: SVG Repo, www.svgrepo.com, Generator: SVG Repo Mixer Tools -->
<svg height="800px" width="800px" version="1.1" id="Layer_1" xmlns="http://www.w3.org/2000/svg" xmlns:xlink="http://www.w3.org/1999/xlink" 
	 viewBox="0 0 512 512" xml:space="preserve">
<g transform="translate(1 1)">
	<g>
		<polygon style="fill:#FFE100;" points="127,216.6 365.933,216.6 365.933,165.4 127,165.4 		"/>
		<polygon style="fill:#FFE100;" points="161.133,447 195.267,447 195.267,395.8 161.133,395.8 		"/>
		<polygon style="fill:#FFE100;" points="297.667,447 331.8,447 331.8,395.8 297.667,395.8 		"/>
		<polygon style="fill:#FFE100;" points="144.067,395.8 348.867,395.8 348.867,216.6 144.067,216.6 		"/>
	</g>
	<polygon style="fill:#63D3FD;" points="203.8,293.4 289.133,293.4 289.133,259.267 203.8,259.267 	"/>
	<polygon style="fill:#3DB9F9;" points="263.533,293.4 289.133,293.4 289.133,259.267 263.533,259.267 	"/>
	<g>
		<polygon style="fill:#FFE100;" points="434.2,344.6 468.333,344.6 468.333,293.4 434.2,293.4 		"/>
		<polygon style="fill:#FFE100;" points="280.6,114.2 502.467,114.2 502.467,63 280.6,63 		"/>
	</g>
	<polygon style="fill:#FFA800;" points="476.867,114.2 502.467,114.2 502.467,63 476.867,63 	"/>
	<polygon style="fill:#FFE100;" points="297.667,114.2 297.667,165.4 365.933,165.4 365.933,216.6 348.867,216.6 348.867,293.4 
		485.4,293.4 485.4,114.2 	"/>
	<g>
		<polygon style="fill:#FFA800;" points="459.8,293.4 485.4,293.4 485.4,114.2 459.8,114.2 		"/>
		<polygon style="fill:#FFA800;" points="451.267,344.6 468.333,344.6 468.333,293.4 451.267,293.4 		"/>
	</g>
	<g>
		<polygon style="fill:#FFE100;" points="41.667,344.6 75.8,344.6 75.8,293.4 41.667,293.4 		"/>
		<polygon style="fill:#FFE100;" points="7.533,114.2 229.4,114.2 229.4,63 7.533,63 		"/>
	</g>
	<polygon style="fill:#FFFFFF;" points="7.533,114.2 33.133,114.2 33.133,63 7.533,63 	"/>
	<polygon style="fill:#FFE100;" points="212.333,114.2 212.333,165.4 144.067,165.4 144.067,216.6 161.133,216.6 161.133,293.4 
		24.6,293.4 24.6,114.2 	"/>
	<g>
		<polygon style="fill:#FFFFFF;" points="24.6,293.4 50.2,293.4 50.2,114.2 24.6,114.2 		"/>
		<polygon style="fill:#FFFFFF;" points="41.667,344.6 58.733,344.6 58.733,293.4 41.667,293.4 		"/>
	</g>
	<path d="M195.267,455.533h-34.133c-5.12,0-8.533-3.413-8.533-8.533v-51.2c0-5.12,3.413-8.533,8.533-8.533h34.133
		c5.12,0,8.533,3.413,8.533,8.533V447C203.8,452.12,200.387,455.533,195.267,455.533z M169.667,438.467h17.067v-34.133h-17.067
		V438.467z"/>
	<path d="M331.8,455.533h-34.133c-5.12,0-8.533-3.413-8.533-8.533v-51.2c0-5.12,3.413-8.533,8.533-8.533H331.8
		c5.12,0,8.533,3.413,8.533,8.533V447C340.333,452.12,336.92,455.533,331.8,455.533z M306.2,438.467h17.067v-34.133H306.2V438.467z"
		/>
	<path d="M348.867,404.333h-204.8c-5.12,0-8.533-3.413-8.533-8.533V216.6c0-5.12,3.413-8.533,8.533-8.533h204.8
		c5.12,0,8.533,3.413,8.533,8.533v179.2C357.4,400.92,353.987,404.333,348.867,404.333z M152.6,387.267h187.733V225.133H152.6
		V387.267z"/>
	<path d="M365.933,225.133H127c-5.12,0-8.533-3.413-8.533-8.533v-51.2c0-5.12,3.413-8.533,8.533-8.533h238.933
		c5.12,0,8.533,3.413,8.533,8.533v51.2C374.467,221.72,371.053,225.133,365.933,225.133z M135.533,208.067H357.4v-34.133H135.533
		V208.067z"/>
	<path d="M289.133,301.933H203.8c-5.12,0-8.533-3.413-8.533-8.533v-34.133c0-5.12,3.413-8.533,8.533-8.533h85.333
		c5.12,0,8.533,3.413,8.533,8.533V293.4C297.667,298.52,294.253,301.933,289.133,301.933z M212.333,284.867H280.6V267.8h-68.267
		V284.867z"/>
	<path d="M468.333,353.133H434.2c-5.12,0-8.533-3.413-8.533-8.533v-51.2c0-5.12,3.413-8.533,8.533-8.533h34.133
		c5.12,0,8.533,3.413,8.533,8.533v51.2C476.867,349.72,473.453,353.133,468.333,353.133z M442.733,336.067H459.8v-34.133h-17.067
		V336.067z"/>
	<path d="M502.467,122.733H280.6c-5.12,0-8.533-3.413-8.533-8.533V63c0-5.12,3.413-8.533,8.533-8.533h221.867
		c5.12,0,8.533,3.413,8.533,8.533v51.2C511,119.32,507.587,122.733,502.467,122.733z M289.133,105.667h204.8V71.533h-204.8V105.667z
		"/>
	<path d="M75.8,353.133H41.667c-5.12,0-8.533-3.413-8.533-8.533v-51.2c0-5.12,3.413-8.533,8.533-8.533H75.8
		c5.12,0,8.533,3.413,8.533,8.533v51.2C84.333,349.72,80.92,353.133,75.8,353.133z M50.2,336.067h17.067v-34.133H50.2V336.067z"/>
	<path d="M229.4,122.733H7.533C2.413,122.733-1,119.32-1,114.2V63c0-5.12,3.413-8.533,8.533-8.533H229.4
		c5.12,0,8.533,3.413,8.533,8.533v51.2C237.933,119.32,234.52,122.733,229.4,122.733z M16.067,105.667h204.8V71.533h-204.8V105.667z
		"/>
	<path d="M485.4,301.933H348.867c-5.12,0-8.533-3.413-8.533-8.533v-76.8c0-5.12,3.413-8.533,8.533-8.533h8.533v-34.133h-59.733
		c-5.12,0-8.533-3.413-8.533-8.533v-51.2c0-5.12,3.413-8.533,8.533-8.533H485.4c5.12,0,8.533,3.413,8.533,8.533v179.2
		C493.933,298.52,490.52,301.933,485.4,301.933z M357.4,284.867h119.467V122.733H306.2v34.133h59.733
		c5.12,0,8.533,3.413,8.533,8.533v51.2c0,5.12-3.413,8.533-8.533,8.533H357.4V284.867z"/>
	<path d="M144.067,301.933H24.6c-5.12,0-8.533-3.413-8.533-8.533V114.2c0-5.12,3.413-8.533,8.533-8.533h187.733
		c5.12,0,8.533,3.413,8.533,8.533v51.2c0,5.12-3.413,8.533-8.533,8.533h-76.8v34.133h8.533c5.12,0,8.533,3.413,8.533,8.533v76.8
		C152.6,298.52,149.187,301.933,144.067,301.933z M33.133,284.867h102.4v-59.733H127c-5.12,0-8.533-3.413-8.533-8.533v-51.2
		c0-5.12,3.413-8.533,8.533-8.533h76.8v-34.133H33.133V284.867z"/>
</g>
</svg>